<?xml version="1.0" ?>
<!DOCTYPE svg  PUBLIC '-//W3C//DTD SVG 1.1//EN'  'http://www.w3.org/Graphics/SVG/1.1/DTD/svg11.dtd'>
<!-- Uploaded to: SVG Repo, www.svgrepo.com, Generator: SVG Repo Mixer Tools -->
<svg width="800px" height="800px" viewBox="0 0 32 32" enable-background="new 0 0 32 32" version="1.1" xml:space="preserve" xmlns="http://www.w3.org/2000/svg" xmlns:xlink="http://www.w3.org/1999/xlink">
<g id="Layer_2"/>
<g id="Layer_3"/>
<g id="Layer_4"/>
<g id="Layer_5"/>
<g id="Layer_6"/>
<g id="Layer_7"/>
<g id="Layer_8">
<g>
<path d="M31,9v14c0,0.55-0.45,1-1,1H2c-0.55,0-1-0.45-1-1V9c0-0.55,0.45-1,1-1h28C30.55,8,31,8.45,31,9z" fill="#48B1DD"/>
</g>
<g>
<path d="M28,12v4c0,0.55-0.45,1-1,1H5c-0.55,0-1-0.45-1-1v-4c0-0.55,0.45-1,1-1h22C27.55,11,28,11.45,28,12z" fill="#96CEE5"/>
</g>
<g>
<path d="M27,21h-2c-0.5527,0-1-0.4473-1-1s0.4473-1,1-1h2c0.5527,0,1,0.4473,1,1S27.5527,21,27,21z" fill="#4391B2"/>
</g>
<g>
<path d="M22,21h-2c-0.5527,0-1-0.4473-1-1s0.4473-1,1-1h2c0.5527,0,1,0.4473,1,1S22.5527,21,22,21z" fill="#4391B2"/>
</g>
</g>
<g id="Layer_9"/>
<g id="Layer_10"/>
<g id="Layer_11"/>
<g id="Layer_12"/>
<g id="Layer_13"/>
<g id="Layer_14"/>
<g id="Layer_15"/>
<g id="Layer_16"/>
<g id="Layer_17"/>
<g id="Layer_18"/>
<g id="Layer_19"/>
<g id="Layer_20"/>
<g id="Layer_21"/>
<g id="Layer_22"/>
<g id="Layer_23"/>
<g id="Layer_24"/>
<g id="Layer_25"/>
<g id="Layer_26"/>
<g id="Layer_27"/>
<g id="Layer_28"/>
<g id="Layer_29"/>
<g id="Layer_30"/>
<g id="Layer_31"/>
</svg>