<?xml version="1.0" ?>
<!DOCTYPE svg  PUBLIC '-//W3C//DTD SVG 1.1//EN'  'http://www.w3.org/Graphics/SVG/1.1/DTD/svg11.dtd'>
<!-- Uploaded to: SVG Repo, www.svgrepo.com, Generator: SVG Repo Mixer Tools -->
<svg width="800px" height="800px" viewBox="0 0 32 32" enable-background="new 0 0 32 32" version="1.1" xml:space="preserve" xmlns="http://www.w3.org/2000/svg" xmlns:xlink="http://www.w3.org/1999/xlink">
<g id="Layer_2"/>
<g id="Layer_3"/>
<g id="Layer_4"/>
<g id="Layer_5"/>
<g id="Layer_6"/>
<g id="Layer_7"/>
<g id="Layer_8"/>
<g id="Layer_9"/>
<g id="Layer_10">
<g>
<path d="M27,7v4c0,0.55-0.45,1-1,1H12c-0.41,0-0.78-0.25-0.93-0.63l-1.6-4c-0.12-0.31-0.08-0.66,0.1-0.93    C9.76,6.17,10.07,6,10.4,6H26C26.55,6,27,6.45,27,7z" fill="#4391B2"/>
</g>
<g>
<path d="M31,11v15c0,0.55-0.45,1-1,1H2c-0.55,0-1-0.45-1-1V6c0-0.55,0.45-1,1-1h8c0.41,0,0.78,0.25,0.93,0.63    L11.08,6l1.6,4H30C30.55,10,31,10.45,31,11z" fill="#48B1DD"/>
</g>
<g>
<path d="M31,20v2H19c-0.55,0-1-0.45-1-1s0.45-1,1-1H31z" fill="#96CEE5"/>
</g>
<g>
<path d="M31,16v2h-9c-0.55,0-1-0.45-1-1s0.45-1,1-1H31z" fill="#96CEE5"/>
</g>
</g>
<g id="Layer_11"/>
<g id="Layer_12"/>
<g id="Layer_13"/>
<g id="Layer_14"/>
<g id="Layer_15"/>
<g id="Layer_16"/>
<g id="Layer_17"/>
<g id="Layer_18"/>
<g id="Layer_19"/>
<g id="Layer_20"/>
<g id="Layer_21"/>
<g id="Layer_22"/>
<g id="Layer_23"/>
<g id="Layer_24"/>
<g id="Layer_25"/>
<g id="Layer_26"/>
<g id="Layer_27"/>
<g id="Layer_28"/>
<g id="Layer_29"/>
<g id="Layer_30"/>
<g id="Layer_31"/>
</svg>