<?xml version="1.0" ?>
<!DOCTYPE svg  PUBLIC '-//W3C//DTD SVG 1.1//EN'  'http://www.w3.org/Graphics/SVG/1.1/DTD/svg11.dtd'>
<!-- Uploaded to: SVG Repo, www.svgrepo.com, Generator: SVG Repo Mixer Tools -->
<svg width="800px" height="800px" viewBox="0 0 32 32" enable-background="new 0 0 32 32" version="1.1" xml:space="preserve" xmlns="http://www.w3.org/2000/svg" xmlns:xlink="http://www.w3.org/1999/xlink">
<g id="Layer_2"/>
<g id="Layer_3"/>
<g id="Layer_4"/>
<g id="Layer_5"/>
<g id="Layer_6"/>
<g id="Layer_7"/>
<g id="Layer_8"/>
<g id="Layer_9"/>
<g id="Layer_10"/>
<g id="Layer_11"/>
<g id="Layer_12"/>
<g id="Layer_13">
<g>
<path d="M6,13c-0.5527,0-1-0.4473-1-1v-2c0-1.6543,1.3457-3,3-3h16c0.5518,0,1-0.4482,1-1V4c0-0.5527,0.4473-1,1-1    s1,0.4473,1,1v2c0,1.6543-1.3457,3-3,3H8c-0.5518,0-1,0.4482-1,1v2C7,12.5527,6.5527,13,6,13z" fill="#4391B2"/>
</g>
<g>
<path d="M31,14v12c0,1.65-1.35,3-3,3H4c-1.65,0-3-1.35-3-3V14c0-1.65,1.35-3,3-3h24C29.65,11,31,12.35,31,14z" fill="#48B1DD"/>
</g>
<g>
<rect fill="#96CEE5" height="4" width="4" x="14" y="15"/>
</g>
<g>
<rect fill="#96CEE5" height="4" width="4" x="21" y="15"/>
</g>
<g>
<rect fill="#96CEE5" height="4" width="4" x="7" y="15"/>
</g>
<g>
<rect fill="#96CEE5" height="4" width="4" x="14" y="21"/>
</g>
<g>
<rect fill="#96CEE5" height="4" width="4" x="21" y="21"/>
</g>
<g>
<rect fill="#96CEE5" height="4" width="4" x="7" y="21"/>
</g>
</g>
<g id="Layer_14"/>
<g id="Layer_15"/>
<g id="Layer_16"/>
<g id="Layer_17"/>
<g id="Layer_18"/>
<g id="Layer_19"/>
<g id="Layer_20"/>
<g id="Layer_21"/>
<g id="Layer_22"/>
<g id="Layer_23"/>
<g id="Layer_24"/>
<g id="Layer_25"/>
<g id="Layer_26"/>
<g id="Layer_27"/>
<g id="Layer_28"/>
<g id="Layer_29"/>
<g id="Layer_30"/>
<g id="Layer_31"/>
</svg>