<?xml version="1.0" ?>
<!DOCTYPE svg  PUBLIC '-//W3C//DTD SVG 1.1//EN'  'http://www.w3.org/Graphics/SVG/1.1/DTD/svg11.dtd'>
<!-- Uploaded to: SVG Repo, www.svgrepo.com, Generator: SVG Repo Mixer Tools -->
<svg width="800px" height="800px" viewBox="0 0 32 32" enable-background="new 0 0 32 32" version="1.1" xml:space="preserve" xmlns="http://www.w3.org/2000/svg" xmlns:xlink="http://www.w3.org/1999/xlink">
<g id="Layer_2"/>
<g id="Layer_3"/>
<g id="Layer_4"/>
<g id="Layer_5"/>
<g id="Layer_6"/>
<g id="Layer_7"/>
<g id="Layer_8"/>
<g id="Layer_9"/>
<g id="Layer_10"/>
<g id="Layer_11"/>
<g id="Layer_12"/>
<g id="Layer_13"/>
<g id="Layer_14"/>
<g id="Layer_15"/>
<g id="Layer_16"/>
<g id="Layer_17"/>
<g id="Layer_18"/>
<g id="Layer_19"/>
<g id="Layer_20"/>
<g id="Layer_21"/>
<g id="Layer_22"/>
<g id="Layer_23"/>
<g id="Layer_24"/>
<g id="Layer_25">
<g>
<path d="M21,2v6c0,0.55-0.45,1-1,1h-8c-0.55,0-1-0.45-1-1V2c0-0.55,0.45-1,1-1h8C20.55,1,21,1.45,21,2z" fill="#96CEE5"/>
</g>
<g>
<path d="M15,5c0,0.55-0.45,1-1,1h-3V4h3C14.55,4,15,4.45,15,5z" fill="#4391B2"/>
</g>
<g>
<path d="M21,4v2h-3c-0.55,0-1-0.45-1-1s0.45-1,1-1H21z" fill="#4391B2"/>
</g>
<g>
<path d="M23,8v16c0,3.86-3.14,7-7,7s-7-3.14-7-7V8c0-0.55,0.45-1,1-1h12C22.55,7,23,7.45,23,8z" fill="#48B1DD"/>
</g>
<g>
<path d="M20,17v5c0,2.21-1.79,4-4,4s-4-1.79-4-4v-5c0-2.21,1.79-4,4-4S20,14.79,20,17z" fill="#4391B2"/>
</g>
<g>
<circle cx="16" cy="17" fill="#96CEE5" r="4"/>
</g>
</g>
<g id="Layer_26"/>
<g id="Layer_27"/>
<g id="Layer_28"/>
<g id="Layer_29"/>
<g id="Layer_30"/>
<g id="Layer_31"/>
</svg>