<?xml version="1.0" encoding="UTF-8" standalone="no"?>
<!-- Created with Inkscape (http://www.inkscape.org/) -->

<svg
   width="200mm"
   height="60mm"
   viewBox="0 0 200 60"
   version="1.1"
   id="svg1"
   inkscape:version="1.1.2 (0a00cf5339, 2022-02-04)"
   sodipodi:docname="logo.svg"
   xml:space="preserve"
   xmlns:inkscape="http://www.inkscape.org/namespaces/inkscape"
   xmlns:sodipodi="http://sodipodi.sourceforge.net/DTD/sodipodi-0.dtd"
   xmlns:xlink="http://www.w3.org/1999/xlink"
   xmlns="http://www.w3.org/2000/svg"
   xmlns:svg="http://www.w3.org/2000/svg"><sodipodi:namedview
     id="namedview1"
     pagecolor="#ffffff"
     bordercolor="#000000"
     borderopacity="0.25"
     inkscape:showpageshadow="2"
     inkscape:pageopacity="0.0"
     inkscape:pagecheckerboard="0"
     inkscape:deskcolor="#d1d1d1"
     inkscape:document-units="mm"
     showguides="true"
     showgrid="true"
     inkscape:zoom="0.4919739"
     inkscape:cx="-37.603621"
     inkscape:cy="256.11115"
     inkscape:window-width="1920"
     inkscape:window-height="1043"
     inkscape:window-x="1600"
     inkscape:window-y="0"
     inkscape:window-maximized="1"
     inkscape:current-layer="g7"
     inkscape:pageshadow="2" /><defs
     id="defs1"><linearGradient
       id="linearGradient94"
       inkscape:collect="always"><stop
         style="stop-color:#c1beb3;stop-opacity:1;"
         offset="0"
         id="stop94" /><stop
         style="stop-color:#e6e6e6;stop-opacity:1;"
         offset="1"
         id="stop95" /></linearGradient><linearGradient
       id="linearGradient73"
       inkscape:collect="always"
       inkscape:label="lollipop"><stop
         style="stop-color:#8979bb;stop-opacity:1;"
         offset="0"
         id="stop73" /><stop
         style="stop-color:#a4bfe5;stop-opacity:1;"
         offset="1"
         id="stop74" /></linearGradient><linearGradient
       id="linearGradient6"
       inkscape:collect="always"><stop
         style="stop-color:#bfd3c7;stop-opacity:1;"
         offset="0"
         id="stop6" /><stop
         style="stop-color:#8f1cc0;stop-opacity:0.87843138;"
         offset="1"
         id="stop7" /></linearGradient><linearGradient
       id="linearGradient3"
       inkscape:collect="always"><stop
         style="stop-color:#bfd3c7;stop-opacity:1;"
         offset="0"
         id="stop3" /><stop
         style="stop-color:#8f1cc0;stop-opacity:0.87837839;"
         offset="1"
         id="stop4" /></linearGradient><rect
       x="120.73195"
       y="170.31828"
       width="113.54553"
       height="129.35567"
       id="rect2" /><linearGradient
       inkscape:collect="always"
       xlink:href="#linearGradient3"
       id="linearGradient4"
       x1="21.050653"
       y1="29.37254"
       x2="84.564911"
       y2="29.752821"
       gradientUnits="userSpaceOnUse"
       gradientTransform="translate(-4.56338,21.105635)" /><linearGradient
       inkscape:collect="always"
       xlink:href="#linearGradient6"
       id="linearGradient7"
       x1="41.359299"
       y1="58.658802"
       x2="82.413498"
       y2="62.154499"
       gradientUnits="userSpaceOnUse" /><linearGradient
       inkscape:collect="always"
       xlink:href="#linearGradient73"
       id="linearGradient74"
       x1="22.780319"
       y1="14.997717"
       x2="25.939898"
       y2="14.619576"
       gradientUnits="userSpaceOnUse"
       spreadMethod="pad" /><linearGradient
       inkscape:collect="always"
       xlink:href="#linearGradient94"
       id="linearGradient95"
       x1="37.463505"
       y1="44.834675"
       x2="56.518234"
       y2="40.532276"
       gradientUnits="userSpaceOnUse" /></defs><g
     inkscape:label="Layer 1"
     inkscape:groupmode="layer"
     id="layer1"
     transform="translate(-0.60502446,-0.75628058)"
     style="display:inline"><image
       width="64.012711"
       height="94.438843"
       preserveAspectRatio="none"
       xlink:href="weak-chain.jpg"
       id="image1"
       x="-50.610039"
       y="15.67295"
       style="display:none;opacity:0.5"
       sodipodi:insensitive="true"
       transform="matrix(1.389451,0,0,1.389451,66.155001,-45.221697)" /><g
       id="g7"
       style="display:inline"
       transform="matrix(1.389451,0,0,1.389451,66.155001,-45.221697)"><text
         xml:space="preserve"
         style="font-style:normal;font-variant:normal;font-weight:normal;font-stretch:normal;font-size:14.1111px;line-height:0;font-family:'Cascadia Code';-inkscape-font-specification:'Cascadia Code';letter-spacing:-0.529167px;word-spacing:0px;fill:url(#linearGradient4);stroke-width:0.265;stroke-dasharray:none"
         x="7.6056323"
         y="55.14085"
         id="text3"
         inkscape:label="title"><tspan
           sodipodi:role="line"
           style="font-style:normal;font-variant:normal;font-weight:bold;font-stretch:normal;font-size:14.1111px;line-height:0;font-family:'Cascadia Code';-inkscape-font-specification:'Cascadia Code Bold';letter-spacing:-0.529167px;word-spacing:0px;fill:url(#linearGradient4);fill-opacity:1;stroke-width:0.265;stroke-dasharray:none"
           x="7.6056323"
           y="55.14085"
           id="tspan5"
           dx="0">Weak chain</tspan></text><text
         xml:space="preserve"
         style="font-style:normal;font-variant:normal;font-weight:bold;font-stretch:normal;font-size:4.93889px;line-height:0;font-family:'Cascadia Code';-inkscape-font-specification:'Cascadia Code Bold';letter-spacing:-0.529167px;word-spacing:0px;fill:url(#linearGradient7);fill-opacity:1;stroke-width:0.264999;stroke-dasharray:none"
         x="36.704815"
         y="61.846943"
         id="text6"
         inkscape:label="banner"><tspan
           sodipodi:role="line"
           id="tspan6"
           style="font-size:4.93889px;fill:url(#linearGradient7);stroke-width:0.265"
           x="36.704815"
           y="61.846943">blockchain for beginers</tspan></text></g><path
       style="display:inline;fill:#c1beb3;fill-opacity:1;stroke:#000000;stroke-width:0.365001;stroke-linecap:round;stroke-linejoin:round;stroke-dasharray:none;stroke-opacity:1;paint-order:normal"
       d="m 17.62263,38.784448 c 0,0 -2.852113,1.90141 -2.28169,1.90141 0.570422,0 5.133803,2.852113 5.133803,2.852113 l -5.894367,1.616197 c 0,0 3.042254,2.37676 5.228874,1.330986 2.186619,-1.045776 4.088028,-2.376763 4.088028,-2.376763 l -0.380282,-8.271126 -9.12676,-3.137323 c 0,0 2.471831,4.943662 4.848591,4.373239 2.376761,-0.570421 -1.616197,1.711267 -1.616197,1.711267 z"
       id="path95"
       sodipodi:nodetypes="csccscccsc" /><path
       style="display:inline;fill:#e6e6e6;fill-opacity:1;stroke:#000000;stroke-width:0.365001;stroke-linecap:round;stroke-linejoin:round;stroke-dasharray:none;stroke-opacity:1;paint-order:normal"
       d="m 46.619108,45.154168 6.75,4.94366 c 0,0 0.950703,-5.03873 -1.521127,-6.274647 -2.47183,-1.235916 3.802817,2.09155 3.802817,3.137324 0,1.045776 2.09155,-5.228873 0.380283,-5.989437 -1.71127,-0.760563 3.707745,1.544894 4.65845,1.711267 -0.02377,-2.614435 -3.707747,-6.84507 -5.038733,-6.75 -1.330987,0.09507 -9.03169,9.221833 -9.03169,9.221833 z"
       id="path96"
       sodipodi:nodetypes="ccssscsc" /><path
       style="display:inline;fill:url(#linearGradient95);stroke:#000000;stroke-width:0.365001;stroke-linecap:round;stroke-linejoin:round;stroke-dasharray:none;stroke-opacity:1;paint-order:normal"
       d="m 24.940452,28.721855 c 0,0 -3.697371,-0.873924 -3.630146,-1.546173 0.06723,-0.67225 0.739474,6.050244 1.344499,6.25192 0.605024,0.201673 -5.44522,-0.470574 -5.44522,-0.470574 0,0 3.966271,1.747847 3.966271,5.310769 0,3.562921 -3.697372,5.445219 -3.697372,5.445219 0,0 4.907421,1.47895 5.377995,0.40335 0.470575,-1.075597 -0.002,4.70015 -0.002,4.70015 0,0 3.699351,0.61062 4.035476,-0.935553 0.336124,-1.546174 1.728739,3.140463 1.728739,3.140463 0,0 3.514806,-1.05649 3.245907,-2.737112 -0.268901,-1.680623 3.294021,4.100719 3.69737,3.899046 0.40335,-0.201676 1.008376,-1.680624 1.008376,-1.680624 0,0 0.470572,-3.159573 1.546172,-1.747848 1.024796,1.703569 2.385573,1.309454 4.676503,1.156335 -0.06723,-0.403349 -0.643007,-3.173084 -0.105207,-3.643659 0.5378,-0.470575 2.218423,-0.537798 3.697373,1.411719 1.478949,1.949525 2.708686,1.899192 3.380936,1.361392 0.672249,-0.5378 -0.540598,-4.175523 -0.540598,-4.175523 l 4.300418,3.514808 c 1.172255,-2.765047 0.637703,-2.62623 -0.410107,-4.745128 0,0 2.289027,1.550953 3.835199,2.088752 -0.13445,-1.949523 -2.117994,-4.195791 -2.185219,-4.531915 -0.06723,-0.336127 4.9468,0.447502 5.014026,-0.09029 0.06722,-0.5378 -4.16317,-2.766358 -4.499294,-3.841958 -0.336126,-1.075598 0.448904,-3.562921 1.12115,-3.899045 0.672248,-0.336127 1.523106,-3.057748 0.850862,-3.057748 -0.672251,0 -4.81713,3.864446 -5.556604,3.326646 -0.739473,-0.537797 -26.755526,-4.90742 -26.755526,-4.90742 z"
       id="path94"
       inkscape:label="mat"
       sodipodi:nodetypes="csscscscscsscsssssccccsssscscc" /><g
       id="g55"
       inkscape:label="cube"
       style="display:inline"><path
         style="display:inline;fill:#bbc6bb;fill-opacity:1;stroke:#000000;stroke-width:0.264999;stroke-linecap:round;stroke-linejoin:round;stroke-dasharray:none;stroke-opacity:1"
         d="m 29.553968,11.594309 c 0,0 -2.709507,-0.760564 -3.802817,7.700704 -1.09331,8.461266 -0.998239,12.216548 -0.570422,14.355632 0.427817,2.139085 0.665493,4.040495 0.665493,4.040495 0,0 6.512324,2.424295 8.889084,2.18662 2.37676,-0.237678 11.978872,-0.570424 12.834506,-1.140847 0.855633,-0.570423 8.508804,-6.512324 8.651409,-7.367957 0.142605,-0.855634 1.188381,-18.205986 0.04753,-18.919014 C 55.127912,11.736914 36.788909,9.8255731 36.351502,5.5573368 34.830378,7.8865622 29.553968,11.451703 29.553968,11.594309 Z"
         id="path51"
         sodipodi:nodetypes="csscsssscc"
         inkscape:label="cube-main" /><path
         id="path56"
         style="display:inline;fill:#dbdbdb;fill-opacity:1;stroke:#000000;stroke-width:0.264999;stroke-linecap:round;stroke-linejoin:round;stroke-dasharray:none;stroke-opacity:1"
         d="m 43.211339,9.606644 c -1.675161,0.755271 -3.50531,1.595235 -3.838009,1.830896 -0.570422,0.40405 -3.808036,3.244247 -3.808036,3.244247 0,0 -3.327704,13.344238 -2.184879,14.352612 1.14282,1.008371 5.949636,2.722117 6.521049,2.251542 0.571412,-0.470574 6.856719,0.235576 7.192842,0.336414 0.336127,0.100837 1.445408,0.437168 2.18488,-0.302308 0.739475,-0.739472 5.258106,-5.360457 5.448246,-5.764506 0.19014,-0.404048 1.782335,-2.947138 1.877405,-3.161047 0.0058,-0.01311 0.128914,-0.185108 0.16123,-0.234094 0.146719,-4.632405 0.136522,-9.336323 -0.446484,-9.7007 -0.687519,-0.429702 -7.610898,-1.299373 -13.108244,-2.853056 z"
         inkscape:label="big-patch" /><path
         style="fill:none;fill-opacity:1;stroke:#000000;stroke-width:0.264999;stroke-linecap:round;stroke-linejoin:round;stroke-dasharray:none;stroke-opacity:1"
         d="m 29.595562,11.597279 c 0,0 15.122137,9.076255 19.447841,5.938931 4.325705,-3.137324 6.512325,-3.707747 7.035213,-5.038732"
         id="path52"
         sodipodi:nodetypes="csc"
         inkscape:label="line" /><path
         style="fill:none;fill-opacity:1;stroke:#000000;stroke-width:0.264999;stroke-linecap:round;stroke-linejoin:round;stroke-dasharray:none;stroke-opacity:1"
         d="m 48.733477,17.768367 c 0,0 -2.969702,19.0209 -1.0477,20.82345"
         id="path53"
         sodipodi:nodetypes="cc"
         inkscape:label="line" /><path
         style="display:none;fill:none;fill-opacity:1;stroke:#000000;stroke-width:0.264999;stroke-linecap:round;stroke-linejoin:round;stroke-dasharray:none;stroke-opacity:1"
         d="m 35.561994,14.671843 c 0,0 -3.327636,13.344151 -2.18481,14.352526 1.142822,1.008372 5.949404,2.72261 6.520817,2.252035 0.571413,-0.470574 6.856944,0.235286 7.193068,0.336124 0.336127,0.100838 1.445337,0.436962 2.18481,-0.302514 0.739476,-0.739473 5.257843,-5.360072 5.447983,-5.764121 0.19014,-0.404049 1.782569,-2.947183 1.877639,-3.161092 0.09507,-0.213908 3.945425,-5.514084 4.016727,-5.680457 0.0713,-0.166373 -3.921654,-11.9075706 -4.016727,-12.5730636 -0.09507,-0.6654927 -10.956864,4.3732394 -10.956864,4.3732394 0,0 -5.704226,2.5193662 -6.274649,2.9234152 -0.570423,0.40405 -3.807994,3.243908 -3.807994,3.243908 z"
         id="path54" /></g><g
       id="g33"
       inkscape:label="nest"
       style="display:inline"><path
         style="fill:none;fill-opacity:1;stroke:#000000;stroke-width:0.264999;stroke-linecap:round;stroke-linejoin:round;stroke-dasharray:none;stroke-opacity:1"
         d="m 38.217378,14.77268 c 1.310886,-0.06722 4.134335,-0.168062 4.42004,-1.058792"
         id="path11" /><path
         style="fill:none;fill-opacity:1;stroke:#000000;stroke-width:0.264999;stroke-linecap:round;stroke-linejoin:round;stroke-dasharray:none;stroke-opacity:1"
         d="m 39.797163,11.613108 c 0,0 0.571413,3.848628 1.647013,4.033497"
         id="path12" /><path
         style="fill:none;fill-opacity:1;stroke:#000000;stroke-width:0.264999;stroke-linecap:round;stroke-linejoin:round;stroke-dasharray:none;stroke-opacity:1"
         d="m 43.477729,13.7475 c 0,0 -2.067166,3.058735 -1.378111,3.411666"
         id="path20" /><path
         style="fill:none;fill-opacity:1;stroke:#000000;stroke-width:0.264999;stroke-linecap:round;stroke-linejoin:round;stroke-dasharray:none;stroke-opacity:1"
         d="m 44.956678,15.377705 c 0,0 -5.6637,-2.537742 -5.831763,-3.361247"
         id="path22" /><path
         style="fill:none;fill-opacity:1;stroke:#000000;stroke-width:0.264999;stroke-linecap:round;stroke-linejoin:round;stroke-dasharray:none;stroke-opacity:1"
         d="m 52.805191,13.075251 c -0.672251,-0.117644 -4.520877,3.579728 -4.907423,3.47889"
         id="path24" /><path
         style="fill:none;fill-opacity:1;stroke:#000000;stroke-width:0.264999;stroke-linecap:round;stroke-linejoin:round;stroke-dasharray:none;stroke-opacity:1"
         d="m 39.292978,13.629857 c 0,0 4.504071,2.924284 5.109094,2.773028"
         id="path25" /><path
         style="fill:none;fill-opacity:1;stroke:#000000;stroke-width:0.264999;stroke-linecap:round;stroke-linejoin:round;stroke-dasharray:none;stroke-opacity:1"
         d="m 48.469181,14.873518 c -0.40335,-0.01681 -2.487322,1.56298 -3.310827,1.731042"
         id="path26" /><path
         style="fill:none;fill-opacity:1;stroke:#000000;stroke-width:0.264999;stroke-linecap:round;stroke-linejoin:round;stroke-dasharray:none;stroke-opacity:1"
         d="m 46.250758,14.755874 c 0,0 3.344442,1.445336 3.193185,1.731042"
         id="path27" /><path
         style="fill:none;fill-opacity:1;stroke:#000000;stroke-width:0.264999;stroke-linecap:round;stroke-linejoin:round;stroke-dasharray:none;stroke-opacity:1"
         d="m 48.87253,14.0164 c 0.168063,0.100837 2.352873,1.495755 2.134394,1.798267"
         id="path28" /><path
         style="fill:none;fill-opacity:1;stroke:#000000;stroke-width:0.264999;stroke-linecap:round;stroke-linejoin:round;stroke-dasharray:none;stroke-opacity:1"
         d="m 50.469124,12.890382 c 0,0 2.470515,1.361305 2.319261,1.781461"
         id="path29" /><path
         style="fill:none;fill-opacity:1;stroke:#000000;stroke-width:0.264999;stroke-linecap:round;stroke-linejoin:round;stroke-dasharray:none;stroke-opacity:1"
         d="m 51.712785,12.503839 c 0,0 1.899105,2.05036 2.285648,1.932717"
         id="path30" /><path
         style="fill:none;fill-opacity:1;stroke:#000000;stroke-width:0.264999;stroke-linecap:round;stroke-linejoin:round;stroke-dasharray:none;stroke-opacity:1"
         d="m 49.746454,13.444988 c 0,0 3.361248,2.336067 3.142766,2.604966"
         id="path31" /><path
         style="fill:none;fill-opacity:1;stroke:#000000;stroke-width:0.264999;stroke-linecap:round;stroke-linejoin:round;stroke-dasharray:none;stroke-opacity:1"
         d="m 48.956562,14.722262 c 0,0 1.260467,3.630146 1.159631,3.74779"
         id="path32" /><path
         style="fill:none;fill-opacity:1;stroke:#000000;stroke-width:0.264999;stroke-linecap:round;stroke-linejoin:round;stroke-dasharray:none;stroke-opacity:1"
         d="m 46.923009,13.965981 c 0,0 2.554546,3.680566 2.403289,4.01669"
         id="path33" /><path
         style="fill:none;fill-opacity:1;stroke:#000000;stroke-width:0.264999;stroke-linecap:round;stroke-linejoin:round;stroke-dasharray:none;stroke-opacity:1"
         d="m 44.939872,13.61305 c -0.252092,0.184869 -2.252035,2.941091 -1.680623,3.630147"
         id="path34" /><path
         style="fill:none;fill-opacity:1;stroke:#000000;stroke-width:0.264999;stroke-linecap:round;stroke-linejoin:round;stroke-dasharray:none;stroke-opacity:1"
         d="m 42.721449,13.61305 c 0,0 1.663817,3.344441 2.268842,3.428472"
         id="path35" /><path
         style="fill:none;fill-opacity:1;stroke:#000000;stroke-width:0.264999;stroke-linecap:round;stroke-linejoin:round;stroke-dasharray:none;stroke-opacity:1"
         d="m 45.595316,14.671843 c 0,0 1.075598,2.688998 0.924343,2.823447"
         id="path36" /><path
         style="fill:none;fill-opacity:1;stroke:#000000;stroke-width:0.264999;stroke-linecap:round;stroke-linejoin:round;stroke-dasharray:none;stroke-opacity:1"
         d="m 39.259366,11.209759 c 0,0 -0.168064,4.873808 0.369736,5.277157"
         id="path37" /><path
         style="fill:none;fill-opacity:1;stroke:#000000;stroke-width:0.264999;stroke-linecap:round;stroke-linejoin:round;stroke-dasharray:none;stroke-opacity:1"
         d="m 41.040826,12.31897 c 0,0 -0.840314,3.562922 -0.336126,3.966272"
         id="path38" /><path
         style="fill:none;fill-opacity:1;stroke:#000000;stroke-width:0.264999;stroke-linecap:round;stroke-linejoin:round;stroke-dasharray:none;stroke-opacity:1"
         d="m 41.914751,13.024832 c 0,0 -0.873925,4.067109 -0.470575,4.470458"
         id="path39" /><path
         style="fill:none;fill-opacity:1;stroke:#000000;stroke-width:0.264999;stroke-linecap:round;stroke-linejoin:round;stroke-dasharray:none;stroke-opacity:1"
         d="m 46.183533,13.831531 c 0,0 -1.915909,3.865434 -1.747848,3.966272"
         id="path40" /><path
         style="fill:none;fill-opacity:1;stroke:#000000;stroke-width:0.264999;stroke-linecap:round;stroke-linejoin:round;stroke-dasharray:none;stroke-opacity:1"
         d="m 52.569902,14.503781 c 0,0 -2.991509,1.546173 -2.857061,2.285648"
         id="path41" /><path
         style="fill:none;fill-opacity:1;stroke:#000000;stroke-width:0.264999;stroke-linecap:round;stroke-linejoin:round;stroke-dasharray:none;stroke-opacity:1"
         d="m 49.309492,13.663469 c 0,0 2.285648,3.999884 2.050362,4.134334"
         id="path42" /><path
         style="fill:none;fill-opacity:1;stroke:#000000;stroke-width:0.264999;stroke-linecap:round;stroke-linejoin:round;stroke-dasharray:none;stroke-opacity:1"
         d="m 53.981626,13.495406 c 0,0 -2.857061,2.319261 -2.823448,2.756223"
         id="path43" /><path
         style="fill:none;fill-opacity:1;stroke:#000000;stroke-width:0.264999;stroke-linecap:round;stroke-linejoin:round;stroke-dasharray:none;stroke-opacity:1"
         d="m 52.368229,11.848396 c 0,0 -1.041988,3.361247 -0.873924,3.999883"
         id="path44" /><path
         style="fill:none;fill-opacity:1;stroke:#000000;stroke-width:0.264999;stroke-linecap:round;stroke-linejoin:round;stroke-dasharray:none;stroke-opacity:1"
         d="m 48.704469,14.402943 c 0,0 2.487322,3.26041 2.991509,3.193185"
         id="path45" /><path
         style="fill:none;fill-opacity:1;stroke:#000000;stroke-width:0.264999;stroke-linecap:round;stroke-linejoin:round;stroke-dasharray:none;stroke-opacity:1"
         d="m 51.460692,16.587754 c -0.235289,0 -3.79821,0.840312 -3.79821,0.840312"
         id="path49" /></g><g
       id="g23"
       inkscape:label="bird"
       style="display:inline;opacity:1;mix-blend-mode:normal"><path
         style="fill:#b7b7a2;fill-opacity:1;stroke:#000000;stroke-width:0.264999;stroke-linecap:round;stroke-linejoin:round;stroke-dasharray:none;stroke-opacity:1"
         d="m 42.519196,14.707865 c 0,0 -0.808098,0.558539 -0.59419,1.022007 0.213907,0.463468 0.879401,-0.582306 0.998241,-0.439701 0.118838,0.142606 -0.511006,0.903169 -0.237678,1.045775 0.273328,0.142606 0.986356,-0.49912 0.998241,-0.689261 0.01188,-0.190141 -0.40405,1.022007 -0.225793,1.033891 0.178256,0.01188 1.342869,-0.831866 1.164612,-1.164613 -0.178255,-0.332746 -1.378522,-1.247799 -1.604312,-1.152728 -0.225793,0.09507 -0.499121,0.34463 -0.499121,0.34463 z"
         id="path4"
         inkscape:label="claw-l" /><path
         style="fill:#b7b7a2;fill-opacity:1;stroke:#000000;stroke-width:0.264999;stroke-linecap:round;stroke-linejoin:round;stroke-dasharray:none;stroke-opacity:1"
         d="m 46.298245,14.886122 c 0,0 -0.736795,0.475352 -0.796213,0.617958 -0.05942,0.142605 0.297093,1.271567 0.499118,1.259683 0.202025,-0.01188 0.558538,-0.831866 0.499121,-0.962588 -0.05942,-0.130722 0.15449,1.081426 0.38028,0.974472 0.225793,-0.106955 0.641726,-0.950705 0.534773,-1.140845 -0.106955,-0.190141 0.28521,0.903169 0.178255,0.986355 -0.106952,0.08319 1.212149,-0.475352 0.784331,-1.010123 -0.427815,-0.534771 -1.105194,-1.033891 -1.342869,-0.986356 -0.237675,0.04754 -0.736796,0.261444 -0.736796,0.261444 z"
         id="path5"
         inkscape:label="claw-r" /><path
         style="display:inline;fill:#958ac0;fill-opacity:1;stroke:#000000;stroke-width:0.264999;stroke-linecap:round;stroke-linejoin:round;stroke-dasharray:none;stroke-opacity:1"
         d="m 42.995598,4.7772886 c 0,0 -0.427818,-2.4005281 -0.142605,-2.6382041 0.28521,-0.2376761 -1.426057,2.7570422 -1.402289,3.3749998 0.02376,0.617958 -1.330986,2.4718312 -1.354754,3.1135563 -0.02376,0.6417255 -0.118838,2.7689264 0.02376,3.0184864 0.142605,0.24956 0.760563,2.424295 1.414174,2.982834 0.653608,0.558539 2.650087,0.962588 3.137323,0.986356 0.487235,0.02377 3.018486,-0.118838 3.315581,-0.142606 0.297095,-0.02377 2.935298,-1.580546 3.172976,-1.960827 0.237675,-0.380282 0.855633,-2.079666 0.903168,-2.709507 C 52.110467,10.172535 51.83714,7.6412851 51.694534,7.2610035 51.551929,6.8807218 49.90008,2.5550176 49.721822,2.4955986 49.543565,2.4361796 47.642158,4.0642606 47.772878,4.515845 47.9036,4.9674295 44.124551,4.8842429 43.696733,4.694102 43.268918,4.5039613 42.99559,4.7772886 42.99559,4.7772886 Z"
         id="path7"
         inkscape:label="body" /><path
         style="fill:#958ac0;fill-opacity:1;stroke:#000000;stroke-width:0.264999;stroke-linecap:round;stroke-linejoin:round;stroke-dasharray:none;stroke-opacity:1"
         d="m 41.896347,13.078125 c 0,-0.02377 -1.042967,-1.038251 -1.586489,-0.802157 -0.162885,0.07075 -0.148814,0.511559 -0.148814,0.511559 l -0.653342,-1.272122 c 0,0 -0.350573,1.978653 0.332748,2.382702 0.683318,0.40405 0.677375,1.188381 0.677375,1.188381 0,0 0.291153,-0.74868 0.225793,-0.861576 -0.06536,-0.112896 0.778389,1.65779 1.134904,1.229973 0.356513,-0.427817 0.01188,-0.81404 0.01188,-0.81404"
         id="path8"
         sodipodi:nodetypes="caccscssc"
         inkscape:label="wing-left" /><path
         style="fill:#958ac0;fill-opacity:1;stroke:#000000;stroke-width:0.264999;stroke-linecap:round;stroke-linejoin:round;stroke-dasharray:none;stroke-opacity:1"
         d="m 47.175102,13.075251 c 0,0 -0.453768,1.29408 0.151257,1.647011 0.605023,0.352931 1.277273,1.041986 1.579785,0.907537 0.302511,-0.13445 0.235288,-1.008375 -0.151257,-1.428531 -0.386543,-0.420155 -0.420156,-0.840311 -0.420156,-0.840311 0,0 1.243663,1.394917 1.126019,1.680623 -0.117644,0.285706 0.974762,-0.184868 0.974762,-0.420156 0,-0.235287 -0.571413,-1.092405 -0.5378,-1.310886 0.03361,-0.218481 0.739473,1.109212 0.689054,1.277274 -0.05042,0.168062 1.0756,-0.722668 0.957956,-1.092405 -0.117644,-0.369738 -0.386543,-0.67225 -0.336124,-0.873925 0.05042,-0.201674 0.638638,0.94115 0.554606,1.092406 -0.08403,0.151256 0.352931,-1.344499 0.151255,-1.613399 -0.201674,-0.2689 -0.554604,-0.75628 -0.857118,-0.689055"
         id="path9"
         inkscape:label="wing-right" /><path
         style="fill:#958ac0;fill-opacity:1;stroke:#000000;stroke-width:0.265;stroke-linecap:round;stroke-linejoin:round;stroke-dasharray:none;stroke-opacity:0.61745"
         d="m 40.463299,12.212266 c -0.01188,-0.05942 -0.522889,-2.103433 -0.475354,-2.9709505 0.04753,-0.8675174 0.273329,-2.7332743 0.273329,-2.7332743 0,0 -0.142605,3.5651408 0.19014,3.5532568"
         id="path1"
         sodipodi:nodetypes="cscc" /><g
         id="g15"
         inkscape:label="eyes"
         style="stroke:#000000;stroke-opacity:1"><path
           style="fill:#f2f2f2;fill-opacity:1;stroke:#000000;stroke-width:0.264999;stroke-dasharray:none;stroke-opacity:1"
           d="m 42.53658,6.9745875 c -0.201673,0.2016749 -0.739473,0.5209934 -0.907536,1.29408 -0.168064,0.7730868 -0.40335,1.2100491 -0.336124,1.8654925 0.06723,0.655443 0.285705,1.327692 0.655441,1.478948 0.36974,0.151256 1.243664,0.470575 1.680626,0 0.436962,-0.470574 0.504187,-0.369737 0.672248,-0.941149 0.168063,-0.571412 0.369736,-2.6385786 0.336124,-2.8066411 C 44.603749,7.6972556 44.620558,6.9913938 44.099561,6.87375 43.578568,6.7561065 43.158412,6.655269 43.007155,6.7224941 42.855898,6.7897189 42.53658,6.9745875 42.53658,6.9745875 Z"
           id="path10" /><path
           id="path23"
           style="fill:#d0c5d4;fill-opacity:1;stroke:#000000;stroke-width:0.264999;stroke-dasharray:none;stroke-opacity:1"
           d="m 43.085646,6.6678217 c -0.04616,0.00178 -0.08378,0.00858 -0.112138,0.021187 -0.151256,0.067225 -0.470772,0.2521809 -0.470772,0.2521809 -0.201673,0.2016747 -0.739375,0.5208921 -0.907438,1.2939779 -0.168064,0.7730853 -0.403123,1.2100773 -0.335897,1.8655195 0.01826,0.177985 0.04781,0.356888 0.08837,0.526583 l 0.130225,-0.0057 c 0.13445,-0.03361 0.386355,-0.386762 1.041796,-0.437182 0.621807,-0.04783 1.696542,-0.03482 1.833997,0.05271 C 44.496689,9.4232572 44.631864,7.9713969 44.6039,7.831575 44.57029,7.6635128 44.586946,6.9575479 44.065948,6.8399042 43.642642,6.744319 43.285672,6.6600873 43.085646,6.6678217 Z" /><path
           style="fill:#f2f2f2;fill-opacity:1;stroke:#000000;stroke-width:0.264999;stroke-dasharray:none;stroke-opacity:1"
           d="m 46.983272,6.9212852 c -0.117645,0.033612 -0.924343,0.5546058 -0.890731,1.5797861 0.03361,1.0251805 0.08403,2.1007807 0.168064,2.2184237 0.08403,0.117644 0.638635,0.739475 0.907536,0.789893 0.268899,0.05042 0.924343,0.352931 1.260467,-0.03361 0.336124,-0.386544 0.739474,-1.176437 0.789893,-1.394918 0.05042,-0.2184812 0.151257,-1.3276931 0.117644,-1.529368 C 49.302532,8.3498153 49.084053,7.4590847 48.747926,7.3414412 48.411802,7.2237976 47.521072,6.8036417 47.43704,6.8036417 c -0.08403,0 -0.453768,0.1176435 -0.453768,0.1176435 z"
           id="path21" /><path
           id="path13"
           style="fill:#d0c5d4;fill-opacity:1;stroke:#000000;stroke-width:0.264999;stroke-dasharray:none;stroke-opacity:1"
           d="m 47.42134,6.828007 c -0.08403,0 -0.453719,0.1178223 -0.453719,0.1178223 -0.117645,0.033612 -0.923997,0.5545692 -0.890385,1.5797485 0.01779,0.5427169 0.04057,1.09533 0.07028,1.5167032 l 0.0863,0.125574 c 0,0 2.739299,0.319182 2.840136,0.201538 l 0.05891,-0.07338 c 0.03366,-0.07904 0.06043,-0.148001 0.07028,-0.190686 0.05042,-0.21848 0.150918,-1.3279473 0.117305,-1.5296221 C 49.286836,8.3740274 49.068498,7.483602 48.732371,7.3659587 48.396248,7.2483152 47.505372,6.828007 47.42134,6.828007 Z" /><path
           style="fill:#000000;fill-opacity:1;stroke:#000000;stroke-width:0.264999;stroke-dasharray:none;stroke-opacity:1"
           d="m 41.881139,10.453478 c 0,0.06722 -0.0168,0.605025 0.235286,0.571412 0.252092,-0.03361 0.319317,-0.05042 0.470574,-0.352931 0.151257,-0.302512 0.08403,-0.470574 -0.100838,-0.470574 -0.184867,0 -0.605022,0.252093 -0.605022,0.252093 z"
           id="path14"
           inkscape:label="iris-l" /><path
           style="fill:#000000;fill-opacity:1;stroke:#000000;stroke-width:0.264999;stroke-dasharray:none;stroke-opacity:1"
           d="m 47.830545,10.470285 c 0,0 0.151254,0.554605 0.252092,0.655443 0.100838,0.100837 0.336124,-0.100838 0.436962,-0.285706 0.100838,-0.184869 0.352931,-0.319319 0.0168,-0.40335 -0.336124,-0.08403 -0.70586,0.03361 -0.70586,0.03361 z"
           id="path15"
           inkscape:label="iris-r" /></g><g
         id="g20"
         inkscape:label="beak"><path
           style="fill:#b0aaa3;fill-opacity:1;stroke:#000000;stroke-width:0.264999;stroke-linecap:round;stroke-linejoin:round;stroke-dasharray:none;stroke-opacity:1"
           d="m 44.665272,11.729313 c -0.16043,0.12478 -1.164613,0.677377 -1.140846,1.004182 0.02376,0.326804 0.326805,2.210387 0.861576,2.28169 0.534773,0.0713 1.414174,-0.481294 1.550837,-0.689261 0.136665,-0.207966 0.730853,-1.372579 0.730853,-1.372579 0,0 -1.390404,-1.235916 -1.556777,-1.259683 -0.166372,-0.02377 -0.445643,0.03565 -0.445643,0.03565 z"
           id="path16" /><path
           style="fill:none;fill-opacity:1;stroke:#000000;stroke-width:0.264999;stroke-linecap:round;stroke-linejoin:round;stroke-dasharray:none;stroke-opacity:1"
           d="m 44.962368,12.489877 c 0,0 -0.332748,2.50154 -0.582306,2.388644"
           id="path17" /><path
           style="fill:none;fill-opacity:1;stroke:#000000;stroke-width:0.264999;stroke-linecap:round;stroke-linejoin:round;stroke-dasharray:none;stroke-opacity:1"
           d="m 43.595731,12.757262 c 0.04159,-0.02971 1.319102,-0.130722 1.206204,0.701145"
           id="path18" /><path
           style="fill:none;fill-opacity:1;stroke:#000000;stroke-width:0.264999;stroke-linecap:round;stroke-linejoin:round;stroke-dasharray:none;stroke-opacity:1"
           d="m 45.491196,12.703785 c 0,0 -0.505061,0.730854 -0.689261,0.742738"
           id="path19" /></g><path
         style="display:inline;opacity:1;mix-blend-mode:normal;fill:#958ac0;fill-opacity:1;stroke:#000000;stroke-width:0.264999;stroke-linecap:round;stroke-linejoin:round;stroke-dasharray:none;stroke-opacity:0.64094"
         d="m 47.242326,5.0418704 c 0,0 1.83188,-0.3193185 2.117585,-0.2016747"
         id="path2" /><path
         style="display:inline;opacity:1;mix-blend-mode:normal;fill:none;fill-opacity:1;stroke:#000000;stroke-width:0.264999;stroke-linecap:round;stroke-linejoin:round;stroke-dasharray:none;stroke-opacity:0.64094"
         d="m 49.091012,3.5965342 c 0,0 0.689055,3.4116658 1.159629,3.0083162"
         id="path3" /></g><g
       id="g59"
       inkscape:label="face-lines"
       style="display:inline"><path
         style="fill:none;fill-opacity:1;stroke:#000000;stroke-width:0.365;stroke-linecap:round;stroke-linejoin:round;stroke-dasharray:none;stroke-opacity:1"
         d="m 28.940335,21.427949 c 0,0 0.655445,3.428472 1.848686,2.974704"
         id="path58" /><path
         style="fill:none;fill-opacity:1;stroke:#000000;stroke-width:0.365;stroke-linecap:round;stroke-linejoin:round;stroke-dasharray:none;stroke-opacity:1"
         d="m 30.268028,21.747268 c 0,0 -1.025179,2.672191 -1.932715,2.403291"
         id="path59" /><path
         style="display:inline;fill:none;fill-opacity:1;stroke:#000000;stroke-width:0.365;stroke-linecap:round;stroke-linejoin:round;stroke-dasharray:none;stroke-opacity:1"
         d="m 37.839239,22.848076 c 0,0 1.64701,2.705804 1.97473,2.470517"
         id="path60" /><path
         style="display:inline;fill:none;fill-opacity:1;stroke:#000000;stroke-width:0.365;stroke-linecap:round;stroke-linejoin:round;stroke-dasharray:none;stroke-opacity:1"
         d="m 39.301382,22.528758 c 0,0 0.831908,2.201617 -1.327695,2.840254"
         id="path61" /><path
         style="display:inline;fill:none;fill-opacity:1;stroke:#000000;stroke-width:0.365;stroke-linecap:round;stroke-linejoin:round;stroke-dasharray:none;stroke-opacity:1"
         d="m 33.279539,29.990434 c 0,0 -0.05942,1.556779 0.112898,1.824165 0.172315,0.267385 0.362455,0.475353 0.362455,0.475353 0,0 0.415933,-0.956646 0.433758,-1.206207 0.01783,-0.24956 0.31492,1.895467 0.689261,1.521127 0.37434,-0.374341 0.30898,-0.516946 0.30898,-0.516946 0,0 0.112895,-0.885343 0.05347,-0.962588"
         id="path62" /><path
         style="display:inline;fill:none;fill-opacity:1;stroke:#000000;stroke-width:0.264999;stroke-linecap:round;stroke-linejoin:round;stroke-dasharray:none;stroke-opacity:1"
         d="m 27.260393,25.37952 c 0,0 -1.889524,0.34463 -3.172975,-0.855634 -1.28345,-1.200264 -2.210387,-2.566901 -2.234155,-2.697623 -0.02377,-0.130722 -0.570422,-1.176497 -0.261443,-1.770687"
         id="path63" /><path
         style="display:inline;fill:none;fill-opacity:1;stroke:#000000;stroke-width:0.264999;stroke-linecap:round;stroke-linejoin:round;stroke-dasharray:none;stroke-opacity:1"
         d="m 45.292802,20.285125 c 0,0 2.319261,2.773029 3.462086,2.621773 1.142823,-0.151256 2.386484,-0.470574 2.638579,-0.756281"
         id="path64" /><path
         style="display:inline;fill:#cacaca;fill-opacity:1;stroke:#000000;stroke-width:0.365;stroke-linecap:round;stroke-linejoin:round;stroke-dasharray:none;stroke-opacity:1"
         d="m 51.787343,20.128926 c 0,0 -0.558808,0.37814 -0.235288,1.109211 0.323519,0.731072 0.600823,0.974762 0.89073,0.722668 0.289907,-0.252093 0.289907,-0.894931 0.260495,-1.037785 -0.02941,-0.142853 -0.35293,-0.718466 -0.525192,-0.747877 -0.172265,-0.02941 -0.390745,-0.04622 -0.390745,-0.04622 z"
         id="path65"
         inkscape:label="hd-r" /><path
         style="display:inline;fill:#cacaca;fill-opacity:1;stroke:#000000;stroke-width:0.264999;stroke-linecap:round;stroke-linejoin:round;stroke-dasharray:none;stroke-opacity:1"
         d="m 19.041464,22.016168 c 0,0 2.436904,-5.596476 2.840254,-5.630089"
         id="path71"
         inkscape:label="popstick" /><path
         style="display:inline;fill:#cacaca;fill-opacity:1;stroke:#000000;stroke-width:0.365;stroke-linecap:round;stroke-linejoin:round;stroke-dasharray:none;stroke-opacity:1"
         d="m 20.712419,17.726351 c 0,0 -0.380282,0.427817 -0.320863,0.653609 0.05942,0.225792 0.237676,0.93882 0.439701,1.152729 0.202024,0.213908 0.68926,0.760563 0.93882,0.4397 0.24956,-0.320862 0.213908,-0.665492 0.118838,-0.903168 -0.09507,-0.237676 -0.362456,-0.858605 -0.433759,-0.947734 -0.0713,-0.08913 -0.389194,-0.347601 -0.466439,-0.368398 -0.07725,-0.0208 -0.276298,-0.02674 -0.276298,-0.02674 z"
         id="path66"
         inkscape:label="hd-l" /><path
         style="display:inline;fill:none;fill-opacity:1;stroke:#000000;stroke-width:0.264999;stroke-linecap:round;stroke-linejoin:round;stroke-dasharray:none;stroke-opacity:1"
         d="m 30.100623,37.132602 c 0,0 -0.08319,3.161091 -0.21391,3.434418 -0.13072,0.273328 -0.879401,1.93706 -0.879401,1.93706 0,0 -0.202023,0.499118 -0.546653,0.606073 -0.34463,0.106955 -0.705162,0.0062 -0.820706,-0.1114 -0.115541,-0.117645 -1.050389,-1.20795 -1.039885,-1.338197"
         id="path67" /><path
         style="display:inline;fill:#cacaca;fill-opacity:1;stroke:#000000;stroke-width:0.365;stroke-linecap:round;stroke-linejoin:round;stroke-dasharray:none;stroke-opacity:1"
         d="m 25.483765,39.170674 c 0,0 -0.404049,-0.01188 -0.326804,0.992296 0.07724,1.004181 0.142605,1.960827 0.261443,2.263865 0.118838,0.303038 0.237677,1.325044 0.463469,1.057658 0.225792,-0.267385 0.273327,-1.580546 0.261443,-1.901409 -0.01188,-0.320863 0.04159,-1.473592 -0.02377,-1.740977 -0.06536,-0.267385 -0.246589,-0.536255 -0.343145,-0.594191 -0.09656,-0.05793 -0.292639,-0.07724 -0.292639,-0.07724 z"
         id="path68"
         inkscape:label="ft-l" /><path
         style="display:inline;fill:none;fill-opacity:1;stroke:#000000;stroke-width:0.264999;stroke-linecap:round;stroke-linejoin:round;stroke-dasharray:none;stroke-opacity:1"
         d="m 39.099706,37.116571 c 0,0 0.260495,2.243632 0.184869,2.865461 -0.07563,0.621832 -0.02521,1.537771 -0.277304,2.050362 -0.252093,0.51259 -0.840312,3.201588 -1.957927,2.773029"
         id="path69" /><path
         style="display:inline;fill:#cacaca;fill-opacity:1;stroke:#000000;stroke-width:0.365;stroke-linecap:round;stroke-linejoin:round;stroke-dasharray:none;stroke-opacity:1"
         d="m 36.284661,41.864331 c 0,0 -0.512591,0.495784 -0.285705,1.529368 0.226882,1.033584 0.344527,1.403321 0.621829,1.436934 0.277304,0.03361 0.470574,-0.03361 0.5378,-0.478978 0.06723,-0.445365 -0.04202,-1.45374 -0.03361,-1.630207 0.0084,-0.176464 -0.109238,-0.663845 -0.184867,-0.865521 -0.07563,-0.201673 -0.268901,-0.378139 -0.352933,-0.336124 -0.08403,0.04202 -0.302511,0.344528 -0.302511,0.344528 z"
         id="path70"
         inkscape:label="ft-r" /><path
         style="display:inline;fill:url(#linearGradient74);stroke:#000000;stroke-width:0.264999;stroke-linecap:round;stroke-linejoin:round;stroke-dasharray:none;stroke-opacity:1;paint-order:normal"
         d="m 21.814493,12.72232 c -0.853879,1.208901 -1.02518,3.848628 0.470574,4.218365 1.495755,0.369737 3.193185,-0.336125 3.26041,-0.739475 0.06722,-0.403349 0.40335,-1.630204 0.184869,-2.117585 -0.218481,-0.487381 -0.168063,-1.058793 -0.453769,-1.378111 -0.285706,-0.319319 -1.445336,-0.554606 -1.999942,-0.504188 -0.554606,0.05042 -1.154696,0.08572 -1.462142,0.520994 z"
         id="path72"
         sodipodi:nodetypes="sssssss"
         inkscape:label="llolipop-face" /><path
         style="display:inline;fill:none;fill-opacity:1;stroke:#000000;stroke-width:0.264999;stroke-linecap:round;stroke-linejoin:round;stroke-dasharray:none;stroke-opacity:1;paint-order:normal"
         d="m 24.283501,12.438058 c -0.130722,0.03565 -1.770686,0.600133 -1.913292,1.283451 -0.142606,0.683319 0.08319,1.295335 0.184199,1.550836 0.101012,0.255502 0.350572,0.707087 0.855634,0.683319 0.505061,-0.02377 1.146787,-0.451584 1.235915,-0.612016 0.08913,-0.160431 0.350572,-0.635783 0.273328,-1.045774 -0.07724,-0.409991 -0.237676,-0.867518 -0.433759,-0.897228 -0.196083,-0.02971 -0.932879,-0.05348 -0.99824,0.01189 -0.06536,0.06536 -0.380281,0.522887 -0.380281,0.659551 0,0.136663 0.02971,0.653609 0.207966,0.677376 0.178257,0.02377 0.659552,-0.01783 0.695203,-0.08913 0.03565,-0.0713 0.101012,-0.160432 0.101012,-0.267386 0,-0.106954 -0.178257,-0.243618 -0.178257,-0.243618"
         id="path73" /></g><g
       id="g93"
       inkscape:label="patch"
       style="display:inline"><path
         style="fill:#bcc0e9;fill-opacity:1;stroke:#000000;stroke-width:0.264999;stroke-linecap:round;stroke-linejoin:round;stroke-dasharray:none;stroke-opacity:1;paint-order:normal"
         d="m 32.857664,18.867196 c 0,0 1.069543,2.947183 1.283451,2.994718 0.213908,0.04753 2.257922,-1.6875 2.543135,-1.426056 0.285211,0.261443 -1.283451,-2.947183 -1.212149,-3.208627 0.0713,-0.261444 -2.614437,1.639965 -2.614437,1.639965 z"
         id="path75"
         inkscape:label="patch1" /><path
         style="fill:#bcc0e9;fill-opacity:1;stroke:#000000;stroke-width:0.264999;stroke-linecap:round;stroke-linejoin:round;stroke-dasharray:none;stroke-opacity:1;paint-order:normal"
         d="m 53.74634,22.789254 c 0,0 -1.241996,2.961511 -2.487324,3.462085 0.235286,0.991569 0.672251,2.319262 0.605026,2.688998 -0.06723,0.369737 2.840251,-2.890673 2.840251,-3.041929 0,-0.151256 -0.957953,-3.109154 -0.957953,-3.109154 z"
         id="path76"
         sodipodi:nodetypes="ccssc"
         inkscape:label="patch2" /><path
         style="fill:none;fill-opacity:1;stroke:#000000;stroke-width:0.264999;stroke-linecap:round;stroke-linejoin:round;stroke-dasharray:none;stroke-opacity:1;paint-order:normal"
         d="m 32.805771,17.394453 c 0,0 0.907537,2.033554 1.092404,1.96633"
         id="path77" /><path
         style="fill:none;fill-opacity:1;stroke:#000000;stroke-width:0.264999;stroke-linecap:round;stroke-linejoin:round;stroke-dasharray:none;stroke-opacity:1;paint-order:normal"
         d="m 33.74692,16.856654 c 0,0 0.672248,1.529367 0.605023,1.731042"
         id="path78" /><path
         style="fill:none;fill-opacity:1;stroke:#000000;stroke-width:0.264999;stroke-linecap:round;stroke-linejoin:round;stroke-dasharray:none;stroke-opacity:1;paint-order:normal"
         d="m 36.553562,17.999478 c 0,0 -1.142825,0.907536 -1.142825,1.075599"
         id="path79" /><path
         style="fill:none;fill-opacity:1;stroke:#000000;stroke-width:0.264999;stroke-linecap:round;stroke-linejoin:round;stroke-dasharray:none;stroke-opacity:1;paint-order:normal"
         d="m 37.259423,18.621308 c 0,0 -1.361305,0.974762 -1.344499,1.142824"
         id="path80" /><path
         style="fill:none;fill-opacity:1;stroke:#000000;stroke-width:0.264999;stroke-linecap:round;stroke-linejoin:round;stroke-dasharray:none;stroke-opacity:1;paint-order:normal"
         d="m 32.015879,20.4868 c 0,0 1.327692,-0.689055 1.46214,-0.873924"
         id="path81" /><path
         style="fill:none;fill-opacity:1;stroke:#000000;stroke-width:0.264999;stroke-linecap:round;stroke-linejoin:round;stroke-dasharray:none;stroke-opacity:1;paint-order:normal"
         d="m 32.721739,21.848105 c 0,0 1.243661,-0.739474 1.344499,-1.008374"
         id="path82" /><path
         style="fill:none;fill-opacity:1;stroke:#000000;stroke-width:0.264999;stroke-linecap:round;stroke-linejoin:round;stroke-dasharray:none;stroke-opacity:1;paint-order:normal"
         d="m 34.570425,20.856538 c 0,0 0.487381,1.109211 0.40335,1.394917"
         id="path83" /><path
         style="fill:none;fill-opacity:1;stroke:#000000;stroke-width:0.264999;stroke-linecap:round;stroke-linejoin:round;stroke-dasharray:none;stroke-opacity:1;paint-order:normal"
         d="m 35.125032,20.285125 c 0,0 0.57141,1.260468 0.487381,1.529368"
         id="path84" /><path
         style="fill:none;fill-opacity:1;stroke:#000000;stroke-width:0.264999;stroke-linecap:round;stroke-linejoin:round;stroke-dasharray:none;stroke-opacity:1;paint-order:normal"
         d="m 51.78001,24.116947 c 0,0 0.252092,2.134392 0.470575,2.151198"
         id="path85" /><path
         style="fill:none;fill-opacity:1;stroke:#000000;stroke-width:0.264999;stroke-linecap:round;stroke-linejoin:round;stroke-dasharray:none;stroke-opacity:1;paint-order:normal"
         d="m 52.821997,23.394279 c 0,0 0.151255,1.915911 0.268899,2.033554"
         id="path86" /><path
         style="fill:none;fill-opacity:1;stroke:#000000;stroke-width:0.264999;stroke-linecap:round;stroke-linejoin:round;stroke-dasharray:none;stroke-opacity:1;paint-order:normal"
         d="m 50.653991,28.234474 c 0,0 1.193244,-0.94115 1.495756,-1.327692"
         id="path87" /><path
         style="fill:none;fill-opacity:1;stroke:#000000;stroke-width:0.264999;stroke-linecap:round;stroke-linejoin:round;stroke-dasharray:none;stroke-opacity:1;paint-order:normal"
         d="m 52.922833,27.427775 c 0,0 0.470574,0.974762 0.436962,1.596594"
         id="path88" /><path
         style="fill:none;fill-opacity:1;stroke:#000000;stroke-width:0.264999;stroke-linecap:round;stroke-linejoin:round;stroke-dasharray:none;stroke-opacity:1;paint-order:normal"
         d="m 53.477439,26.839557 c 0,0 0.252095,1.815073 0.588219,1.815073"
         id="path89" /><path
         style="fill:none;fill-opacity:1;stroke:#000000;stroke-width:0.264999;stroke-linecap:round;stroke-linejoin:round;stroke-dasharray:none;stroke-opacity:1;paint-order:normal"
         d="m 54.116077,25.411027 c 0,0 0.722667,0.756281 0.75628,1.462143"
         id="path90" /><path
         style="fill:none;fill-opacity:1;stroke:#000000;stroke-width:0.264999;stroke-linecap:round;stroke-linejoin:round;stroke-dasharray:none;stroke-opacity:1;paint-order:normal"
         d="m 38.822401,30.167191 c 0,0 -0.302511,1.260467 -0.06722,1.663819"
         id="path91" /><path
         style="fill:none;fill-opacity:1;stroke:#000000;stroke-width:0.264999;stroke-linecap:round;stroke-linejoin:round;stroke-dasharray:none;stroke-opacity:1;paint-order:normal"
         d="m 39.729939,30.469705 c 0,0 -0.285705,1.277273 -0.0168,1.680622"
         id="path92" /><path
         style="fill:none;fill-opacity:1;stroke:#000000;stroke-width:0.264999;stroke-linecap:round;stroke-linejoin:round;stroke-dasharray:none;stroke-opacity:1;paint-order:normal"
         d="m 40.62067,29.948711 c 0,0 -0.420155,2.168003 0.08403,2.520934"
         id="path93" /></g></g></svg>
